<svg xmlns="http://www.w3.org/2000/svg" width="1200" height="630" viewBox="0 0 1200 630" role="img" aria-label="Heimdall — security scanner for MCP servers">
  <rect width="1200" height="630" fill="#0d1117"/>
  <rect x="1" y="1" width="1198" height="628" fill="none" stroke="#30363d" stroke-width="2"/>
  <g fill="#e3b341" opacity=".6">
    <circle cx="150" cy="110" r="3"/><circle cx="300" cy="80" r="3"/><circle cx="1050" cy="120" r="3"/><circle cx="980" cy="70" r="3"/><circle cx="1110" cy="220" r="3"/><circle cx="90" cy="230" r="3"/>
  </g>
  <g transform="translate(600 210)" fill="none" stroke="#e3b341" stroke-width="8" stroke-linejoin="round">
    <path transform="translate(-80 -80) scale(3.33)" d="M24 4 L40 10 V24 C40 34 33 40.5 24 44 C15 40.5 8 34 8 24 V10 Z"/>
    <path transform="translate(-80 -80) scale(3.33)" d="M15 24 Q24 16.5 33 24 Q24 31.5 15 24 Z"/>
    <circle transform="translate(-80 -80) scale(3.33)" cx="24" cy="24" r="3.4" fill="#e3b341" stroke="none"/>
  </g>
  <text x="600" y="440" text-anchor="middle" font-family="ui-monospace, Menlo, monospace" font-size="76" font-weight="700" fill="#e6edf3">Heimdall</text>
  <text x="600" y="490" text-anchor="middle" font-family="ui-monospace, Menlo, monospace" font-size="28" fill="#e3b341">The watchman at your agent's gate.</text>
  <text x="600" y="545" text-anchor="middle" font-family="ui-monospace, Menlo, monospace" font-size="24" fill="#8b949e">Security scanner for Model Context Protocol servers</text>
</svg>
